Coordinates
version=1
nRows=11
nColumns=46
inDegrees=yes

Units are S.I. units (second, meters, Newtons, ...)
Angles are in degrees.

endheader
time	pelvis_tilt	pelvis_list	pelvis_rotation	pelvis_tx	pelvis_ty	pelvis_tz	bb_angle	bb_tx	bb_ty	bb_tz	hip_flexion_r	hip_adduction_r	hip_rotation_r	knee_angle_r	knee_angle_r_beta	ankle_angle_r	subtalar_angle_r	mtp_angle_r	crank_angle_r	hip_flexion_l	hip_adduction_l	hip_rotation_l	knee_angle_l	knee_angle_l_beta	ankle_angle_l	subtalar_angle_l	mtp_angle_l	crank_angle_l	lumbar_extension	lumbar_bending	lumbar_rotation	arm_flex_r	arm_add_r	arm_rot_r	elbow_flex_r	pro_sup_r	wrist_flex_r	wrist_dev_r	arm_flex_l	arm_add_l	arm_rot_l	elbow_flex_l	pro_sup_l	wrist_flex_l	wrist_dev_l
      7.50000000	    -34.70123358	      0.62021292	      1.33143147	      0.25328884	      1.02975964	     -0.21776618	      0.00000000	      0.50000000	      0.00000000	      0.25000000	     63.69677993	     -6.70014242	      2.56935820	     77.32904575	      1.34964646	    -31.14487319	    -10.20812277	      0.00000000	      0.00000000	     74.80106825	     -4.68242501	     -0.21163118	     63.54352192	      1.10904368	      9.06129992	     -8.68137902	      0.00000000	      0.00000000	    -39.35716269	     -1.93739479	     -8.83020337	     53.40601310	    -13.99156533	     31.84939402	     72.99500728	     51.53122017	      0.00000000	      0.00000000	     40.00869653	    -39.50816724	     22.09773345	     99.69169673	     51.73294160	      0.00000000	      0.00000000
      7.50500000	    -34.40005745	      0.41962037	      1.39833423	      0.25361569	      1.02899187	     -0.21835924	      0.00000000	      0.50000000	      0.00000000	      0.25000000	     64.67862753	     -6.56263013	      2.76206828	     80.02714595	      1.39673719	    -30.14338594	    -10.38532632	      0.00000000	      0.00000000	     72.72477823	     -4.51915588	     -0.23929976	     60.57904491	      1.05730379	      7.90291052	     -9.08882862	      0.00000000	      0.00000000	    -39.39498784	     -1.44688319	     -8.92493938	     53.79610658	    -13.91131312	     32.29289177	     72.62398817	     51.51414117	      0.00000000	      0.00000000	     39.35934144	    -39.40283843	     21.33166010	     99.60601109	     51.62850620	      0.00000000	      0.00000000
      7.51000000	    -34.35015065	     -0.12514518	      1.25202402	      0.25407935	      1.02778121	     -0.21922326	      0.00000000	      0.50000000	      0.00000000	      0.25000000	     65.79295617	     -6.08014475	      2.78001952	     82.51977728	      1.44024181	    -28.76679860	     -9.99263376	      0.00000000	      0.00000000	     71.01982328	     -4.69011781	      0.02487974	     57.81916938	      1.00913488	      6.50032528	     -9.86356967	      0.00000000	      0.00000000	    -39.09542357	     -0.50778511	     -9.60821831	     55.46749661	    -12.94244264	     34.76409943	     70.45695787	     51.45438704	      0.00000000	      0.00000000	     36.39105624	    -39.39834147	     17.53962227	    100.36936751	     51.35987072	      0.00000000	      0.00000000
      7.51500000	    -34.16952022	     -0.60207364	      1.07123829	      0.25462229	      1.02641390	     -0.21948748	      0.00000000	      0.50000000	      0.00000000	      0.25000000	     66.83712048	     -5.56791808	      2.71813037	     85.09071860	      1.48511320	    -27.61045540	    -10.70247098	      0.00000000	      0.00000000	     69.21955968	     -5.05443480	      0.14813626	     55.31699641	      0.96546372	      5.86745274	     -9.16117984	      0.00000000	      0.00000000	    -38.95648375	      0.10209172	     -9.23815953	     55.54562582	    -12.84385949	     34.92395298	     70.28585797	     51.44015093	      0.00000000	      0.00000000	     35.77317482	    -39.45841189	     17.45846275	    100.44010946	     51.36170477	      0.00000000	      0.00000000
      7.52000000	    -33.78415634	     -0.92305053	      0.98712887	      0.25520200	      1.02486179	     -0.22026301	      0.00000000	      0.50000000	      0.00000000	      0.25000000	     67.77681715	     -5.34785156	      2.78710583	     87.81076809	      1.53258702	    -26.00931234	    -10.52514416	      0.00000000	      0.00000000	     67.24167620	     -5.20894989	      0.10649307	     52.97468348	      0.92458265	      5.03356290	     -9.10672663	      0.00000000	      0.00000000	    -39.10673827	      1.41111144	    -12.74176140	     59.54701948	     -8.35618115	     40.21286355	     64.08644207	     51.14194266	      0.00000000	      0.00000000	     27.48300004	    -42.28544473	      8.78741109	    104.69541472	     51.23407093	      0.00000000	      0.00000000
      7.52500000	    -33.61070609	     -1.48031701	      0.80827839	      0.25555753	      1.02285221	     -0.22073474	      0.00000000	      0.50000000	      0.00000000	      0.25000000	     68.94722694	     -4.86784824	      2.65683200	     90.38427337	      1.57750316	    -24.77696833	    -10.92845786	      0.00000000	      0.00000000	     65.54492657	     -5.61389305	      0.25623919	     50.72369232	      0.88529544	      4.32255204	     -8.65221086	      0.00000000	      0.00000000	    -38.93183833	      2.26767182	    -12.32383189	     59.61824036	     -8.15711123	     40.30117017	     64.12914097	     51.15683577	      0.00000000	      0.00000000	     26.95352940	    -42.19897603	      8.72620929	    104.52872572	     51.19607468	      0.00000000	      0.00000000
      7.53000000	    -33.26200450	     -1.74727661	      0.90331633	      0.25605601	      1.02106169	     -0.22203001	      0.00000000	      0.50000000	      0.00000000	      0.25000000	     69.98810158	     -4.94967798	      2.74149789	     93.04295656	      1.62390594	    -22.78109559	    -10.15765973	      0.00000000	      0.00000000	     63.52598618	     -5.49165915	      0.34749094	     48.34989479	      0.84386486	      3.34204451	     -8.89260312	      0.00000000	      0.00000000	    -38.92337411	      3.05642715	    -12.55466022	     60.05840439	     -7.51806655	     40.96103866	     63.57737616	     51.15312776	      0.00000000	      0.00000000	     25.89181563	    -42.11206141	      7.77399142	    104.19902345	     51.03495189	      0.00000000	      0.00000000
      7.53500000	    -33.06306839	     -2.28017801	      0.75169494	      0.25625717	      1.01886676	     -0.22267961	      0.00000000	      0.50000000	      0.00000000	      0.25000000	     71.22390769	     -4.59101992	      2.64648419	     95.58843942	      1.66833299	    -21.20694504	     -9.95888623	      0.00000000	      0.00000000	     61.80733540	     -5.89088028	      0.43875343	     46.22347147	      0.80675177	      2.52711419	     -8.65272195	      0.00000000	      0.00000000	    -38.79584582	      4.22977277	    -14.63053149	     62.79592351	     -4.49034795	     45.27034162	     58.82079346	     51.10318426	      0.00000000	      0.00000000	     19.63195126	    -43.09938512	      1.25455802	    106.90099588	     50.86884678	      0.00000000	      0.00000000
      7.54000000	    -32.84031877	     -2.69560780	      0.58483404	      0.25665302	      1.01676287	     -0.22330199	      0.00000000	      0.50000000	      0.00000000	      0.25000000	     72.40519400	     -4.23386781	      2.72634853	     98.07355068	      1.71170637	    -19.20519677	     -9.51402400	      0.00000000	      0.00000000	     59.94415024	     -6.22287410	      0.36895983	     44.00335834	      0.76800348	      1.67663705	     -8.55904870	      0.00000000	      0.00000000	    -38.70302375	      5.00205921	    -14.43653978	     62.91384136	     -4.01987312	     45.32912520	     58.78349317	     51.14500639	      0.00000000	      0.00000000	     18.80179196	    -42.98455215	      0.74764640	    106.70299595	     50.77704551	      0.00000000	      0.00000000
      7.54500000	    -32.60826104	     -3.12418551	      0.43846558	      0.25683704	      1.01454419	     -0.22418169	      0.00000000	      0.50000000	      0.00000000	      0.25000000	     73.64221919	     -3.98258750	      2.75271680	    100.52153154	      1.75443169	    -17.24017225	     -9.09128746	      0.00000000	      0.00000000	     58.13798367	     -6.52893237	      0.32089097	     41.95937839	      0.73232931	      0.98871613	     -8.47593101	      0.00000000	      0.00000000	    -38.65314498	      5.90609856	    -15.20210482	     63.90454823	     -2.50943423	     47.00880137	     56.97450620	     51.35738492	      0.00000000	      0.00000000	     15.63067302	    -43.13915709	     -2.33871845	    107.80181443	     50.65404449	      0.00000000	      0.00000000
      7.55000000	    -32.31935268	     -3.48094871	      0.30474752	      0.25711177	      1.01256277	     -0.22519706	      0.00000000	      0.50000000	      0.00000000	      0.25000000	     74.83303581	     -3.80428070	      2.86256481	    102.89197998	      1.79580382	    -15.25430916	     -8.66848173	      0.00000000	      0.00000000	     56.22194126	     -6.80026691	      0.14501874	     39.92211587	      0.69677237	      0.29920848	     -8.22432280	      0.00000000	      0.00000000	    -38.65380127	      6.63943304	    -14.90753050	     63.98166036	     -2.32136553	     47.21362372	     57.07539670	     51.40997474	      0.00000000	      0.00000000	     15.16991095	    -42.90394360	     -2.40784071	    107.50443142	     50.59549001	      0.00000000	      0.00000000
